# xmcd
#
# Track frame offsets:
#	150
#	14629
#	27079
#	42500
#	56052
#	71289
#	85674
#	103951
#	119316
#	131378
#	149935
#	168720
#
# Disc length: 2474 seconds
#
# Revision: 1
# Processed by: cddbd v1.5.2PL0 Copyright (c) Steve Scherf et al.
# Submitted via: audiograbber 1.83.01
#
DISCID=b009a80c
DTITLE=Cort Armstrong - Chicken Pickin'
DYEAR=2009
DGENRE=Rag Blues
TTITLE0=I Dont Mind
TTITLE1=Chicken Pickin'
TTITLE2=Sinnin' Shoes Blues
TTITLE3=Slam and Bail
TTITLE4=Stone Cold Blues
TTITLE5=Cort's Blue Rooster Rag
TTITLE6=Coming Home
TTITLE7=Unseen Hand
TTITLE8=Can't Keep Livin'
TTITLE9=Stray Dog Blues
TTITLE10=Stupid Blues
TTITLE11=Me and Casey Jones
EXTD=
EXTT0=
EXTT1=
EXTT2=
EXTT3=
EXTT4=
EXTT5=
EXTT6=
EXTT7=
EXTT8=
EXTT9=
EXTT10=
EXTT11=
PLAYORDER=
